Description

Sinopse e detalhes

Chris Gardner (Will Smith) é um pai de família que enfrenta sérios problemas financeiros. Apesar de todas as tentativas em manter a família unida, Linda (Thandie Newton), sua esposa, decide partir. Chris agora é pai solteiro e precisa cuidar de Christopher (Jaden Smith), seu filho de apenas 5 anos. Ele tenta usar sua habilidade como vendedor para conseguir um emprego melhor, que lhe dê um salário mais digno. Chris consegue uma vaga de estagiário numa importante corretora de ações, mas não recebe salário pelos serviços prestados. Sua esperança é que, ao fim do programa de estágio, ele seja contratado e assim tenha um futuro promissor na empresa. Porém seus problemas financeiros não podem esperar que isto aconteça, o que faz com que sejam despejados. Chris e Christopher passam a dormir em abrigos, estações de trem, banheiros e onde quer que consigam um refúgio à noite, mantendo a esperança de que dias melhores virão.

Format : Matroska
Format version : Version 2
File size : 829 MiB
Duration : 1h 57mn
Overall bit rate : 987 Kbps
Encoded date : UTC 2013-05-02 13:06:29
Writing application : mkvmerge v6.1.0 ('Old Devil') built on Mar 2 2013 14:32:37
Writing library : libebml v1.3.0 + libmatroska v1.4.0

Video
ID : 1
Format : AVC
Format/Info : Advanced Video Codec
Format profile : High@L4.1
Format settings, CABAC : Yes
Format settings, ReFrames : 4 frames
Codec ID : V_MPEG4/ISO/AVC
Duration : 1h 57mn
Bit rate : 584 Kbps
Width : 720 pixels
Height : 400 pixels
Display aspect ratio : 16:9
Frame rate mode : Constant
Frame rate : 23.976 fps
Color space : YUV
Chroma subsampling : 4:2:0
Bit depth : 8 bits
Scan type : Progressive
Bits/(Pixel*Frame) : 0.085
Stream size : 490 MiB (59%)
Writing library : x264 core 130 r2273 b3065e6
Encoding settings : cabac=1 / ref=3 / deblock=1:0:0 / analyse=0x3:0x113 / me=hex / subme=7 / psy=1 / psy_rd=1.00:0.00 / mixed_ref=1 / me_range=16 / chroma_me=1 / trellis=1 / 8x8dct=1 / cqm=0 / deadzone=21,11 / fast_pskip=1 / chroma_qp_offset=-2 / threads=3 / lookahead_threads=1 / sliced_threads=0 / nr=0 / decimate=1 / interlaced=0 / bluray_compat=0 / constrained_intra=0 / bframes=3 / b_pyramid=2 / b_adapt=1 / b_bias=0 / direct=1 / weightb=1 / open_gop=0 / weightp=2 / keyint=240 / keyint_min=23 / scenecut=40 / intra_refresh=0 / rc_lookahead=40 / rc=crf / mbtree=1 / crf=23.0 / qcomp=0.60 / qpmin=0 / qpmax=69 / qpstep=4 / vbv_maxrate=62500 / vbv_bufsize=78125 / crf_max=0.0 / nal_hrd=none / ip_ratio=1.40 / aq=1:1.00
Default : Yes
Forced : No

Audio
ID : 2
Format : AC-3
Format/Info : Audio Coding 3
Mode extension : CM (complete main)
Format settings, Endianness : Big
Codec ID : A_AC3
Duration : 1h 57mn
Bit rate mode : Constant
Bit rate : 384 Kbps
Channel(s) : 2 channels
Channel positions : Front: L R
Sampling rate : 44.1 KHz
Bit depth : 16 bits
Compression mode : Lossy
Stream size : 323 MiB (39%)
Title : by fantasma
Language : Portuguese
Default : Yes
Forced : No
